HIERARCHY
ROOT hip
{
	OFFSET 0.000000 0.000000 0.000000
	CHANNELS 6 Xposition Yposition Zposition Xrotation Zrotation Yrotation 
	JOINT abdomen
	{
		OFFSET 0.000000 3.422050 0.000000
		CHANNELS 3 Xrotation Zrotation Yrotation 
		JOINT chest
		{
			OFFSET 0.000000 8.486693 -0.684411
			CHANNELS 3 Xrotation Zrotation Yrotation 
			JOINT neck
			{
				OFFSET 0.000000 10.266162 -0.273764
				CHANNELS 3 Xrotation Zrotation Yrotation 
				JOINT head
				{
					OFFSET 0.000000 3.148285 0.000000
					CHANNELS 3 Xrotation Zrotation Yrotation 
					End Site
					{
						OFFSET 0.000000 3.148289 0.000000
					}
				}
			}
			JOINT lCollar
			{
				OFFSET 3.422053 6.707223 -0.821293
				CHANNELS 3 Yrotation Zrotation Xrotation 
				JOINT lShldr
				{
					OFFSET 3.285171 0.000000 0.000000
					CHANNELS 3 Zrotation Yrotation Xrotation 
					JOINT lForeArm
					{
						OFFSET 10.129278 0.000000 0.000000
						CHANNELS 3 Yrotation Zrotation Xrotation 
						JOINT lHand
						{
							OFFSET 8.486692 0.000000 0.000000
							CHANNELS 3 Zrotation Yrotation Xrotation 
							End Site
							{
								OFFSET 4.106464 0.000000 0.000000
							}
						}
					}
				}
			}
			JOINT rCollar
			{
				OFFSET -3.558935 6.707223 -0.821293
				CHANNELS 3 Yrotation Zrotation Xrotation 
				JOINT rShldr
				{
					OFFSET -3.148289 0.000000 0.000000
					CHANNELS 3 Zrotation Yrotation Xrotation 
					JOINT rForeArm
					{
						OFFSET -10.266159 0.000000 0.000000
						CHANNELS 3 Yrotation Zrotation Xrotation 
						JOINT rHand
						{
							OFFSET -8.349810 0.000000 0.000000
							CHANNELS 3 Zrotation Yrotation Xrotation 
							End Site
							{
								OFFSET -4.106464 0.000000 0.000000
							}
						}
					}
				}
			}
		}
	}
	JOINT lThigh
	{
		OFFSET 5.338403 -1.642589 1.368821
		CHANNELS 3 Xrotation Zrotation Yrotation 
		JOINT lShin
		{
			OFFSET -2.053232 -20.121670 0.000000
			CHANNELS 3 Xrotation Zrotation Yrotation 
			JOINT lFoot
			{
				OFFSET 0.000000 -19.300380 -1.231939
				CHANNELS 3 Xrotation Yrotation Zrotation 
				End Site
				{
					OFFSET 0.000000 -2.463878 4.653993
				}
			}
		}
	}
	JOINT rThigh
	{
		OFFSET -5.338403 -1.642589 1.368821
		CHANNELS 3 Xrotation Zrotation Yrotation 
		JOINT rShin
		{
			OFFSET 2.053232 -20.121670 0.000000
			CHANNELS 3 Xrotation Zrotation Yrotation 
			JOINT rFoot
			{
				OFFSET 0.000000 -19.300380 -1.231939
				CHANNELS 3 Xrotation Yrotation Zrotation 
				End Site
				{
					OFFSET 0.000000 -2.463878 4.653993
				}
			}
		}
	}
}
MOTION
Frames: 18
Frame Time: 0.033264
0.000000 7.522690 0.000000 -48.026028 0.432040 -1.982361 31.122530 -13.270316 1.399263 24.709583 5.973298 -3.364387 11.397865 -14.626075 -14.314704 -24.333502 9.996986 9.000123 12.818349 -14.306571 -3.182500 -58.918037 -1.490264 -4.198714 -16.721472 9.920465 -22.008644 31.079367 9.632678 59.290344 21.488667 5.494109 -6.006965 -9.915583 39.254395 -25.398357 18.684055 4.482553 -55.082668 7.293101 6.930178 -21.655041 -24.200228 38.210922 90.442467 92.245514 -4.893553 -5.051108 59.675430 11.651778 -55.361794 -90.405777 -20.052402 -6.606799 96.559227 -7.353359 1.707714 39.493183 1.618549 20.357464 
0.000000 7.522690 0.000000 -48.026028 0.432040 -1.982361 31.122530 -13.270316 1.399263 24.709583 5.973298 -3.364387 11.436774 -14.706229 -14.393386 -24.333502 9.996986 9.000123 12.818349 -14.306571 -3.182500 -58.918037 -1.490264 -4.198714 -16.721472 9.920465 -22.008644 31.079367 9.632678 59.290344 21.488667 5.494109 -6.006965 -9.915583 39.254395 -25.398357 18.180506 4.631083 -56.014095 7.293101 6.930178 -21.655041 -24.200228 38.210922 90.442467 92.245514 -4.893553 -5.051108 59.675430 11.651778 -55.361794 -90.405777 -20.052402 -6.606799 96.559227 -7.353359 1.707714 39.493183 1.618549 20.357464 
0.000000 7.522690 0.000000 -48.026028 0.432040 -1.982361 31.122530 -13.270316 1.399263 24.709583 5.973298 -3.364387 11.475812 -14.786330 -14.472150 -24.333502 9.996986 9.000123 12.818349 -14.306571 -3.182500 -58.918037 -1.490264 -4.198714 -16.721472 9.920465 -22.008644 31.079367 9.632678 59.290344 21.488667 5.494109 -6.006965 -9.915583 39.254395 -25.398357 17.680836 4.787259 -56.941551 7.293101 6.930178 -21.655041 -24.200228 38.210922 90.442467 92.245514 -4.893553 -5.051108 59.675430 11.651778 -55.361794 -90.405777 -20.052402 -6.606799 96.559227 -7.353359 1.707714 39.493183 1.618549 20.357464 
0.000000 7.522690 0.000000 -48.026028 0.432040 -1.982361 31.122530 -13.270316 1.399263 24.709583 5.973298 -3.364387 11.514974 -14.866371 -14.550994 -24.333502 9.996986 9.000123 12.818349 -14.306571 -3.182500 -58.918037 -1.490264 -4.198714 -16.721472 9.920465 -22.008644 31.079367 9.632678 59.290344 21.488667 5.494109 -6.006965 -9.915583 39.254395 -25.398357 17.185247 4.950930 -57.864864 7.293101 6.930178 -21.655041 -24.200228 38.210922 90.442467 92.245514 -4.893553 -5.051108 59.675430 11.651778 -55.361794 -90.405777 -20.052402 -6.606799 96.559227 -7.353359 1.707714 39.493183 1.618549 20.357464 
0.000000 7.522690 0.000000 -48.026028 0.432040 -1.982361 31.122530 -13.270316 1.399263 24.709583 5.973298 -3.364387 11.554259 -14.946353 -14.629917 -24.333502 9.996986 9.000123 12.818349 -14.306571 -3.182500 -58.918037 -1.490264 -4.198714 -16.721472 9.920465 -22.008644 31.079367 9.632678 59.290344 21.488667 5.494109 -6.006965 -9.915583 39.254395 -25.398357 16.693907 5.121939 -58.783840 7.293101 6.930178 -21.655041 -24.200228 38.210922 90.442467 92.245514 -4.893553 -5.051108 59.675430 11.651778 -55.361794 -90.405777 -20.052402 -6.606799 96.559227 -7.353359 1.707714 39.493183 1.618549 20.357464 
0.000000 7.522690 0.000000 -48.026028 0.432040 -1.982361 31.122530 -13.270316 1.399263 24.709583 5.973298 -3.364387 11.593673 -15.026279 -14.708923 -24.333502 9.996986 9.000123 12.818349 -14.306571 -3.182500 -58.918037 -1.490264 -4.198714 -16.721472 9.920465 -22.008644 31.079367 9.632678 59.290344 21.488667 5.494109 -6.006965 -9.915583 39.254395 -25.398357 16.206980 5.300119 -59.698307 7.293101 6.930178 -21.655041 -24.200228 38.210922 90.442467 92.245514 -4.893553 -5.051108 59.675430 11.651778 -55.361794 -90.405777 -20.052402 -6.606799 96.559227 -7.353359 1.707714 39.493183 1.618549 20.357464 
0.000000 7.522690 0.000000 -48.026028 0.432040 -1.982361 31.122530 -13.270316 1.399263 24.709583 5.973298 -3.364387 11.633212 -15.106149 -14.788011 -24.333502 9.996986 9.000123 12.818349 -14.306571 -3.182500 -58.918037 -1.490264 -4.198714 -16.721472 9.920465 -22.008644 31.079367 9.632678 59.290344 21.488668 5.494110 -6.006965 -9.915583 39.254395 -25.398357 15.724624 5.485303 -60.608074 7.293101 6.930178 -21.655041 -24.200228 38.210922 90.442467 92.245514 -4.893553 -5.051108 59.675430 11.651778 -55.361794 -90.405777 -20.052402 -6.606799 96.559227 -7.353359 1.707714 39.493183 1.618549 20.357464 
0.000000 7.522690 0.000000 -48.026028 0.432040 -1.982361 31.122530 -13.270316 1.399263 24.709583 5.973298 -3.364387 11.672877 -15.185958 -14.867177 -24.333502 9.996986 9.000123 12.818349 -14.306571 -3.182500 -58.918037 -1.490264 -4.198714 -16.721472 9.920465 -22.008644 31.079367 9.632678 59.290344 21.488667 5.494109 -6.006965 -9.915583 39.254395 -25.398357 15.246999 5.677316 -61.513004 7.293101 6.930178 -21.655041 -24.200228 38.210922 90.442467 92.245514 -4.893553 -5.051108 59.675430 11.651778 -55.361794 -90.405777 -20.052402 -6.606799 96.559227 -7.353359 1.707714 39.493183 1.618549 20.357464 
0.000000 7.522690 0.000000 -48.026028 0.432040 -1.982361 31.122530 -13.270316 1.399263 24.709583 5.973298 -3.364387 11.712670 -15.265710 -14.946428 -24.333502 9.996986 9.000123 12.818349 -14.306571 -3.182500 -58.918037 -1.490264 -4.198714 -16.721472 9.920465 -22.008644 31.079367 9.632678 59.290344 21.488665 5.494109 -6.006965 -9.915583 39.254395 -25.398357 15.759758 5.471518 -60.541664 7.293101 6.930178 -21.655041 -24.200228 38.210922 90.442467 92.245514 -4.893553 -5.051108 59.675430 11.651778 -55.361794 -90.405777 -20.052402 -6.606799 96.559227 -7.353359 1.707714 39.493183 1.618549 20.357464 
0.000000 7.522690 0.000000 -48.026028 0.432040 -1.982361 31.122530 -13.270316 1.399263 24.709583 5.973298 -3.364387 11.752586 -15.345398 -15.025756 -24.333502 9.996986 9.000123 12.818349 -14.306571 -3.182500 -58.918037 -1.490264 -4.198714 -16.721472 9.920465 -22.008644 31.079367 9.632678 59.290344 21.488668 5.494110 -6.006965 -9.915583 39.254395 -25.398357 16.277952 5.273603 -59.564762 7.293100 6.930178 -21.655041 -24.200228 38.210922 90.442467 92.245514 -4.893553 -5.051108 59.675430 11.651778 -55.361794 -90.405777 -20.052402 -6.606799 96.559227 -7.353359 1.707714 39.493183 1.618549 20.357464 
0.000000 7.522690 0.000000 -48.026028 0.432040 -1.982361 31.122530 -13.270316 1.399263 24.709583 5.973298 -3.364387 11.792634 -15.425033 -15.105173 -24.333502 9.996986 9.000123 12.818349 -14.306571 -3.182500 -58.918037 -1.490264 -4.198714 -16.721472 9.920465 -22.008644 31.079367 9.632678 59.290344 21.488667 5.494109 -6.006965 -9.915583 39.254395 -25.398357 16.801390 5.083779 -58.582493 7.293100 6.930178 -21.655041 -24.200228 38.210922 90.442467 92.245514 -4.893553 -5.051108 59.675430 11.651778 -55.361794 -90.405777 -20.052402 -6.606799 96.559227 -7.353359 1.707714 39.493183 1.618549 20.357464 
0.000000 7.522690 0.000000 -48.026028 0.432040 -1.982361 31.122530 -13.270316 1.399263 24.709583 5.973298 -3.364387 11.832805 -15.504604 -15.184667 -24.333502 9.996986 9.000123 12.818349 -14.306571 -3.182500 -58.918037 -1.490264 -4.198714 -16.721472 9.920465 -22.008644 31.079367 9.632678 59.290344 21.488665 5.494109 -6.006965 -9.915583 39.254395 -25.398357 17.329866 4.902259 -57.595066 7.293100 6.930178 -21.655041 -24.200228 38.210922 90.442467 92.245514 -4.893553 -5.051108 59.675430 11.651778 -55.361794 -90.405777 -20.052402 -6.606799 96.559227 -7.353359 1.707714 39.493183 1.618549 20.357464 
0.000000 7.522690 0.000000 -48.026028 0.432040 -1.982361 31.122530 -13.270316 1.399263 24.709583 5.973298 -3.364387 11.873103 -15.584117 -15.264243 -24.333502 9.996986 9.000123 12.818349 -14.306571 -3.182500 -58.918037 -1.490264 -4.198714 -16.721472 9.920465 -22.008644 31.079367 9.632678 59.290344 21.488667 5.494109 -6.006965 -9.915583 39.254395 -25.398357 17.863180 4.729244 -56.602715 7.293101 6.930178 -21.655041 -24.200228 38.210922 90.442467 92.245514 -4.893553 -5.051108 59.675430 11.651778 -55.361794 -90.405777 -20.052402 -6.606799 96.559227 -7.353359 1.707714 39.493183 1.618549 20.357464 
0.000000 7.522690 0.000000 -48.026028 0.432040 -1.982361 31.122530 -13.270316 1.399263 24.709583 5.973298 -3.364387 11.913529 -15.663568 -15.343904 -24.333502 9.996986 9.000123 12.818349 -14.306571 -3.182500 -58.918037 -1.490264 -4.198714 -16.721472 9.920465 -22.008644 31.079367 9.632678 59.290344 21.488667 5.494109 -6.006965 -9.915583 39.254395 -25.398357 18.401104 4.564925 -55.605644 7.293101 6.930178 -21.655041 -24.200228 38.210922 90.442467 92.245514 -4.893553 -5.051108 59.675430 11.651778 -55.361794 -90.405777 -20.052402 -6.606799 96.559227 -7.353359 1.707714 39.493183 1.618549 20.357464 
0.000000 7.522690 0.000000 -48.026028 0.432040 -1.982361 31.122530 -13.270316 1.399263 24.709583 5.973298 -3.364387 11.954083 -15.742960 -15.423647 -24.333502 9.996986 9.000123 12.818349 -14.306571 -3.182500 -58.918037 -1.490264 -4.198714 -16.721472 9.920465 -22.008644 31.079367 9.632678 59.290344 21.488668 5.494110 -6.006965 -9.915583 39.254395 -25.398357 18.943424 4.409491 -54.604137 7.293101 6.930178 -21.655041 -24.200228 38.210922 90.442467 92.245514 -4.893553 -5.051108 59.675430 11.651778 -55.361794 -90.405777 -20.052402 -6.606799 96.559227 -7.353359 1.707714 39.493183 1.618549 20.357464 
0.000000 7.522690 0.000000 -48.026028 0.432040 -1.982361 31.122530 -13.270316 1.399263 24.709583 5.973298 -3.364387 11.994763 -15.822290 -15.503472 -24.333502 9.996986 9.000123 12.818349 -14.306571 -3.182500 -58.918037 -1.490264 -4.198714 -16.721472 9.920465 -22.008644 31.079367 9.632678 59.290344 21.488667 5.494109 -6.006965 -9.915583 39.254395 -25.398357 19.489895 4.263118 -53.598434 7.293101 6.930178 -21.655041 -24.200228 38.210922 90.442467 92.245514 -4.893553 -5.051108 59.675430 11.651778 -55.361794 -90.405777 -20.052402 -6.606799 96.559227 -7.353359 1.707714 39.493183 1.618549 20.357464 
0.000000 7.522690 0.000000 -48.026028 0.432040 -1.982361 31.122530 -13.270316 1.399263 24.709583 5.973298 -3.364387 12.035572 -15.901558 -15.583381 -24.333502 9.996986 9.000123 12.818349 -14.306571 -3.182500 -58.918037 -1.490264 -4.198714 -16.721472 9.920465 -22.008644 31.079367 9.632678 59.290344 21.488665 5.494109 -6.006965 -9.915583 39.254395 -25.398357 20.040268 4.125973 -52.588764 7.293101 6.930178 -21.655041 -24.200228 38.210922 90.442467 92.245514 -4.893553 -5.051108 59.675430 11.651778 -55.361794 -90.405777 -20.052402 -6.606799 96.559227 -7.353359 1.707714 39.493183 1.618549 20.357464 
0.000000 7.522690 0.000000 -48.026028 0.432040 -1.982361 31.122530 -13.270316 1.399263 24.709583 5.973298 -3.364387 12.076506 -15.980764 -15.663371 -24.333502 9.996986 9.000123 12.818349 -14.306571 -3.182500 -58.918037 -1.490264 -4.198714 -16.721472 9.920465 -22.008644 31.079367 9.632678 59.290344 21.488668 5.494110 -6.006965 -9.915583 39.254395 -25.398357 20.594294 3.998219 -51.575424 7.293101 6.930178 -21.655041 -24.200228 38.210922 90.442467 92.245514 -4.893553 -5.051108 59.675430 11.651778 -55.361794 -90.405777 -20.052402 -6.606799 96.559227 -7.353359 1.707714 39.493183 1.618549 20.357464 
